<?xml version="1.0" encoding="UTF-8"?> <!-- Generator: Adobe Illustrator 22.0.0, SVG Export Plug-In . SVG Version: 6.00 Build 0) --> <svg xmlns="http://www.w3.org/2000/svg" xmlns:xlink="http://www.w3.org/1999/xlink" id="Layer_1" x="0px" y="0px" viewBox="0 0 508.7 162.7" style="enable-background:new 0 0 508.7 162.7;" xml:space="preserve"> <style type="text/css"> .st0{fill:none;stroke:#B2ABAC;stroke-width:0.2152;stroke-miterlimit:10;} .st1{fill:#97D0F0;} .st2{fill:url(#SVGID_1_);} .st3{fill:#FFFFFF;} .st4{fill:none;stroke:#000000;stroke-linecap:round;stroke-linejoin:round;stroke-miterlimit:10;} .st5{fill:url(#SVGID_2_);} .st6{fill:none;stroke:#FFFFFF;stroke-linecap:round;stroke-linejoin:round;stroke-miterlimit:10;} .st7{fill:#B7AEB1;} .st8{fill:#6FB2E3;} .st9{fill:#6FB2E3;stroke:url(#SVGID_3_);stroke-linecap:round;stroke-linejoin:round;stroke-miterlimit:10;} .st10{fill:url(#SVGID_4_);} .st11{fill:#92CEE9;} .st12{fill:none;stroke:url(#SVGID_5_);stroke-linecap:round;stroke-linejoin:round;stroke-miterlimit:10;} .st13{fill:#4A9FDC;} </style> <g> <g> <path class="st7" d="M194.6,101.2c-1.6,1.5-3.8,2.6-6.6,3.4c-2.7,0.8-5.6,1.2-8.6,1.2c-7.9,0-13.7-2.3-17.3-7 c-3.6-4.7-5.4-12-5.4-21.9c0-9.8,1.8-17.1,5.4-21.7c3.6-4.6,9.4-6.9,17.3-6.9c3,0,5.9,0.4,8.6,1.2c2.7,0.8,4.9,1.9,6.6,3.4 c-0.4,1.1-0.9,2.1-1.6,2.9c-0.6,0.8-1.3,1.6-1.9,2.2c-0.7,0.7-1.4,1.3-2.2,1.9c-0.8-0.5-1.7-0.9-2.6-1.3c-0.9-0.3-1.8-0.7-3-1 c-1.1-0.3-2.4-0.5-3.8-0.5c-2.1,0-3.9,0.4-5.5,1c-1.6,0.7-2.9,1.8-4,3.4c-1.1,1.6-1.9,3.6-2.4,6.1c-0.6,2.5-0.8,5.6-0.8,9.3 c0,3.6,0.3,6.7,0.8,9.3c0.5,2.5,1.4,4.6,2.4,6.3c1.1,1.6,2.4,2.8,4,3.5c1.6,0.7,3.4,1.1,5.5,1.1c1.4,0,2.7-0.1,3.8-0.4 c1.1-0.3,2.1-0.6,3-0.9c0.9-0.4,1.8-0.9,2.6-1.4c0.8,0.6,1.5,1.2,2.2,1.9c0.6,0.6,1.2,1.3,1.9,2.2 C193.7,99.1,194.2,100.1,194.6,101.2z"></path> <path class="st7" d="M227.2,94.3c0,2.4-0.3,4.3-1,5.8c-0.6,1.5-1.6,2.6-2.8,3.4c-1.2,0.8-2.8,1.3-4.6,1.6c-1.8,0.3-4,0.4-6.4,0.4 s-4.5-0.1-6.4-0.4c-1.8-0.3-3.4-0.8-4.6-1.6c-1.2-0.8-2.2-1.9-2.8-3.4c-0.6-1.4-1-3.4-1-5.8V67.6c1.5-0.2,3-0.2,4.5-0.2 c0.7,0,1.3,0,1.9,0c0.6,0,1.1,0.1,1.5,0.1c0.5,0.1,0.9,0.1,1.3,0.1V93c0,1.7,0.5,2.9,1.5,3.5c1,0.7,2.3,1,4.1,1 c1.7,0,3.1-0.3,4.1-1c1-0.6,1.5-1.8,1.5-3.5V67.6c1.5-0.2,3-0.2,4.4-0.2c0.7,0,1.3,0,1.9,0c0.5,0,1,0.1,1.5,0.1 c0.5,0.1,1,0.1,1.4,0.1V94.3z"></path> <path class="st7" d="M243.5,67.3c1.3,0,2.6,0,3.8,0c1.2,0,2.2,0.1,3,0.1c1,0.1,1.9,0.1,2.8,0.1c0,0.3,0,0.7,0.1,1.2 c0,0.4,0.1,0.8,0.1,1.3c0,0.5,0,1,0,1.6c0,1.2-0.1,2.5-0.2,3.9h-10v29.5c-0.4,0-0.9,0.1-1.4,0.1c-0.4,0-0.9,0.1-1.5,0.1 c-0.6,0-1.2,0-1.9,0c-1.4,0-2.9-0.1-4.4-0.2V67.9c0.8,0,1.7-0.1,2.6-0.2c0.8-0.1,1.9-0.2,3-0.2C240.7,67.4,242,67.3,243.5,67.3z"></path> <path class="st7" d="M265.4,67.3c1.3,0,2.6,0,3.8,0c1.2,0,2.2,0.1,3,0.1c1,0.1,1.9,0.1,2.8,0.1c0,0.3,0,0.7,0.1,1.2 c0,0.4,0.1,0.8,0.1,1.3c0,0.5,0,1,0,1.6c0,1.2-0.1,2.5-0.2,3.9h-10v29.5c-0.4,0-0.9,0.1-1.4,0.1c-0.5,0-1,0.1-1.5,0.1 c-0.6,0-1.2,0-1.9,0c-1.4,0-2.9-0.1-4.4-0.2V67.9c0.8,0,1.7-0.1,2.6-0.2c0.8-0.1,1.9-0.2,3-0.2C262.6,67.4,263.9,67.3,265.4,67.3z "></path> <path class="st7" d="M284.3,89.8c0,2.8,0.8,4.8,2.4,6c1.6,1.2,3.7,1.8,6.3,1.8c1.6,0,3-0.1,4.3-0.3c1.2-0.2,2.3-0.4,3.3-0.7 c1-0.3,2-0.6,2.9-1c0.5,1,0.8,2,1.1,2.9s0.5,1.7,0.7,2.5c0.2,0.9,0.3,1.7,0.5,2.5c-1,0.5-2.1,0.8-3.4,1.1c-1.1,0.3-2.4,0.6-4,0.8 c-1.6,0.2-3.4,0.3-5.4,0.3c-6.4,0-11-1.6-13.8-4.8c-2.8-3.2-4.2-8.1-4.2-14.6c0-6.4,1.4-11.2,4.3-14.3c2.9-3.1,7-4.7,12.3-4.7 c2.5,0,4.7,0.4,6.7,1.3c1.9,0.8,3.6,2.1,4.9,3.6c1.3,1.6,2.4,3.5,3.1,5.7c0.7,2.2,1.1,4.7,1.1,7.5c0,0.7,0,1.3,0,1.8 c0,0.5-0.1,1-0.1,1.4c-0.1,0.4-0.1,0.8-0.2,1.2H284.3z M291.7,75.2c-2.5,0-4.4,0.7-5.5,2.1c-1.1,1.4-1.7,3.2-1.8,5.4h13.4v-1.1 c0-0.7-0.1-1.5-0.3-2.2c-0.2-0.8-0.6-1.4-1-2c-0.5-0.6-1.1-1.1-1.9-1.5C293.7,75.4,292.8,75.2,291.7,75.2z"></path> <path class="st7" d="M322,75.7v29.5c-0.4,0-0.8,0.1-1.3,0.1c-0.4,0-0.9,0.1-1.5,0.1c-0.6,0-1.2,0-1.9,0c-1.5,0-2.9-0.1-4.5-0.2 V67.9c1.2,0,2.6-0.1,4.1-0.2c1.3-0.1,2.8-0.2,4.4-0.2c1.6,0,3.4-0.1,5.3-0.1c3,0,5.5,0.3,7.5,0.8c2,0.5,3.6,1.5,4.8,2.7 s2.1,2.9,2.6,4.9c0.5,2,0.8,4.5,0.8,7.4v21.9c-0.4,0-0.8,0.1-1.3,0.1c-0.4,0-0.9,0.1-1.5,0.1c-0.6,0-1.2,0-1.9,0 c-1.4,0-2.9-0.1-4.5-0.2V82.6c0-2.7-0.5-4.5-1.4-5.5c-0.9-0.9-2.6-1.4-5.1-1.4H322z"></path> <path class="st7" d="M370.5,97c0.1,0.7,0.1,1.4,0.1,2s0,1.3,0,1.9s0,1.1,0,1.6c0,0.5,0,1,0,1.3c-0.1,0.4-0.1,0.8-0.1,1.2 c-0.7,0.1-1.4,0.2-2.2,0.2c-1.4,0.1-3.4,0.2-5.8,0.2c-5.2,0-9.1-1.5-11.6-4.4c-2.5-2.9-3.8-7.7-3.8-14.2c0-2.9,0.2-5.5,0.6-7.9 c0.4-2.4,1.2-4.5,2.3-6.2s2.6-3.1,4.5-4c1.9-1,4.3-1.5,7.3-1.5c1.1,0,2.3,0,3.3,0.1c1.1,0,2,0.1,2.9,0.1c0.9,0.1,1.8,0.1,2.6,0.2 c0.1,0.6,0.1,1.3,0.1,2c0,0.7,0,1.3,0,1.9c0,0.6,0,1.2,0,1.8c0,0.5,0,1,0,1.4c-0.1,0.5-0.1,0.9-0.1,1.3c-0.7,0-1.5-0.1-2.4-0.2 c-0.8,0-1.6-0.1-2.6-0.2c-1,0-2-0.1-3.1-0.1c-1.3,0-2.3,0.3-3,0.9c-0.8,0.6-1.4,1.4-1.8,2.4c-0.4,1-0.7,2.2-0.9,3.6 c-0.1,1.4-0.2,2.9-0.2,4.5c0,3.8,0.5,6.5,1.6,8.1c1.1,1.6,2.8,2.4,5.1,2.4c1,0,1.9,0,2.8,0c0.8,0,1.6-0.1,2.3-0.1 C369,97.1,369.8,97.1,370.5,97z"></path> <path class="st7" d="M391.7,105.1c-3,0.1-5.5-0.1-7.5-0.6c-2-0.6-3.7-1.5-4.9-2.8c-1.3-1.3-2.2-3-2.7-5.1s-0.8-4.6-0.8-7.6V67.6 c0.4,0,0.8,0,1.3-0.1c0.4,0,0.9-0.1,1.5-0.1c0.6,0,1.2,0,1.9,0c1.4,0,2.9,0.1,4.5,0.2v22.1c0,2.7,0.5,4.6,1.6,5.7 c1,1.1,2.8,1.6,5.2,1.6h4.3V67.6c0.4,0,0.8,0,1.3-0.1c0.4,0,0.9-0.1,1.5-0.1c0.6,0,1.2,0,1.9,0c1.4,0,2.9,0.1,4.5,0.2v34.1 c0,3-0.3,5.8-0.9,8.2c-0.6,2.4-1.5,4.5-2.8,6.2c-1.3,1.7-3,3-5.2,3.9c-2.1,0.9-4.7,1.3-7.8,1.3c-1.9,0-3.7-0.1-5.3-0.4 c-1.6-0.3-3-0.6-4.1-0.9c-1.3-0.4-2.5-0.9-3.6-1.4c0.1-0.8,0.2-1.6,0.4-2.5c0.2-0.8,0.4-1.6,0.7-2.5c0.3-0.9,0.7-1.9,1.2-2.9 c0.9,0.5,2,0.8,3.1,1.2c1,0.3,2.1,0.6,3.4,0.8c1.3,0.3,2.7,0.4,4.2,0.4c2.6,0,4.5-0.7,5.7-2.1c1.2-1.4,1.8-3.5,1.8-6.3 L391.7,105.1z"></path> </g> <g> <path class="st8" d="M457,87.8c0,13.4-5.5,18.4-20.9,18.4c-15.6,0-20.8-4.9-20.8-18.4V49.1c0,0,3.4-0.3,6.7-0.3 c3,0,6.6,0.3,6.6,0.3V88c0,5.8,2.3,6.9,7.5,6.9c5.2,0,7.6-1.1,7.6-6.9V49.1c0,0,3.4-0.3,6.4-0.3c3.1,0,6.8,0.3,6.8,0.3V87.8z"></path> <path class="st8" d="M462.1,67.3c0,0,2.5-0.1,6-0.1l11.7-0.2c11.3-0.1,15.4,4.9,15.4,19.1c0,11.8-4.2,19.6-16.8,19.6h-4.6v16.9 c0,0-3.1,0.3-6,0.3c-3.1,0-5.7-0.3-5.7-0.3V67.3z M473.8,95.6h3.5c5.1,0,6.4-3.5,6.4-9.4c0-6.8-1.2-8.6-5-8.6h-4.9V95.6z"></path> </g> <path class="st0" d="M78.9,42c0,0-4.8-5.4-9-9.6c-4.5-4.5-9.7-9.1-9.7-9.1l0.1,36.8l0.2,0.2L78.9,42L78.9,42z"></path> <path class="st1" d="M118.8,81.8c0,0-4.8-5.4-9-9.6c-4.5-4.5-9.7-9.1-9.7-9.1l0.1,36.8l0.2,0.2L118.8,81.8L118.8,81.8z"></path> <g> <g> <g> <path class="st8" d="M79.8,121.1c-13.6,13.6-26.4,11-48.1-10.7C9.7,88.5,7.4,76.3,21.1,62.6l39.3-39.3c0,0,5.2,4.5,9.7,9.1 c4.2,4.2,9,9.6,9,9.6L39.6,81.4c-5.9,5.9-3.7,10.3,3.5,17.5c7.4,7.4,11.9,9.6,17.7,3.7l39.5-39.5c0,0,5,4.4,9.4,8.8 c4.4,4.4,9.3,9.9,9.3,9.9L79.8,121.1z"></path> </g> </g> <linearGradient id="SVGID_1_" gradientUnits="userSpaceOnUse" x1="38.7231" y1="61.437" x2="121.2691" y2="61.437"> <stop offset="0" style="stop-color:#92CEE9"></stop> <stop offset="6.739660e-02" style="stop-color:#7DC0E6"></stop> <stop offset="0.1783" style="stop-color:#61AEE0"></stop> <stop offset="0.2757" style="stop-color:#50A3DD"></stop> <stop offset="0.3482" style="stop-color:#4A9FDC"></stop> <stop offset="0.6604" style="stop-color:#6FB2E3"></stop> <stop offset="1" style="stop-color:#4A9FDC"></stop> </linearGradient> <path style="fill:#6FB2E3;stroke:url(#SVGID_1_);stroke-linecap:round;stroke-linejoin:round;stroke-miterlimit:10;" d=" M120.8,78.5l-7-50.7l-51.4-7.3l21.9,21.2L40.4,85.5c-1.3,1.3-1.7,3-0.3,5.1c1.1,1.6,3,3.8,5,5.8c2.5,2.5,5.2,4.5,6.9,5.5 c1.3,0.8,3.9,0.7,5.2-0.6l43.5-42.8L120.8,78.5z"></path> <linearGradient id="SVGID_2_" gradientUnits="userSpaceOnUse" x1="36.3768" y1="96.5015" x2="100.3709" y2="96.5015"> <stop offset="0" style="stop-color:#92CEE9"></stop> <stop offset="0.1414" style="stop-color:#82C2E6"></stop> <stop offset="0.3482" style="stop-color:#6FB2E3"></stop> <stop offset="0.6604" style="stop-color:#6FB2E3"></stop> <stop offset="1" style="stop-color:#6FB2E3"></stop> </linearGradient> <path class="st5" d="M79.8,121.3l20.6-20.6V63.4l-39.5,39.5c-5.9,5.9-10.4,3.6-17.7-3.7c-3.8-3.8-6.2-6.9-6.8-9.7v25.8 C55.3,132.6,67.2,133.9,79.8,121.3z"></path> <path class="st11" d="M118.8,81.7c0,0-4.8-5.4-9-9.6c-4.5-4.5-9.7-9.1-9.7-9.1l0.1,36.8l0.2,0.2L118.8,81.7L118.8,81.7z"></path> <path class="st11" d="M79,41.7c0,0-4.8-5.4-9-9.6c-4.5-4.5-9.7-9.1-9.7-9.1l0.1,36.8l0.2,0.2L79,41.7L79,41.7z"></path> <g> <g> <linearGradient id="SVGID_3_" gradientUnits="userSpaceOnUse" x1="12.0914" y1="76.3648" x2="119.5369" y2="76.3648"> <stop offset="0" style="stop-color:#92CEE9"></stop> <stop offset="6.739660e-02" style="stop-color:#7DC0E6"></stop> <stop offset="0.1783" style="stop-color:#61AEE0"></stop> <stop offset="0.2757" style="stop-color:#50A3DD"></stop> <stop offset="0.3482" style="stop-color:#4A9FDC"></stop> <stop offset="0.6604" style="stop-color:#6FB2E3"></stop> <stop offset="1" style="stop-color:#4A9FDC"></stop> </linearGradient> <path style="fill:none;stroke:url(#SVGID_3_);stroke-linecap:round;stroke-linejoin:round;stroke-miterlimit:10;" d=" M79.8,121.1c-13.6,13.6-26.4,11-48.1-10.7C9.7,88.5,7.4,76.3,21.1,62.6l39.3-39.3c0,0,5.2,4.5,9.7,9.1c4.2,4.2,9,9.6,9,9.6 L39.6,81.4c-5.9,5.9-3.7,10.3,3.5,17.5c7.4,7.4,11.9,9.6,17.7,3.7l39.5-39.5c0,0,5,4.4,9.4,8.8c4.4,4.4,9.3,9.9,9.3,9.9 L79.8,121.1z"></path> </g> </g> </g> </g> </svg> 